<svg id="visual" viewBox="0 0 4000 2000" width="4000" height="2000" xmlns="http://www.w3.org/2000/svg" xmlns:xlink="http://www.w3.org/1999/xlink" version="1.1"><g stroke-width="1" stroke-linejoin="bevel"><path d="M2127.6 927.9L2314.9 850.9L2081.6 685.7Z" fill="#4facf7" stroke="#4facf7"></path><path d="M2314.9 850.9L2323.9 666.7L2081.6 685.7Z" fill="#008cff" stroke="#008cff"></path><path d="M2081.6 685.7L1880.4 858.9L2127.6 927.9Z" fill="#006eff" stroke="#006eff"></path><path d="M2139.6 466.4L1882.4 672.7L2081.6 685.7Z" fill="#0085ff" stroke="#0085ff"></path><path d="M2081.6 685.7L1882.4 672.7L1880.4 858.9Z" fill="#007eff" stroke="#007eff"></path><path d="M2323.9 666.7L2139.6 466.4L2081.6 685.7Z" fill="#41a6f9" stroke="#41a6f9"></path><path d="M1881.4 1119.1L2119.6 1149.1L2127.6 927.9Z" fill="#33a0fb" stroke="#33a0fb"></path><path d="M2127.6 927.9L2342.9 1149.1L2314.9 850.9Z" fill="#1393fe" stroke="#1393fe"></path><path d="M2564.2 683.7L2348.9 439.4L2323.9 666.7Z" fill="#0085ff" stroke="#0085ff"></path><path d="M2323.9 666.7L2348.9 439.4L2139.6 466.4Z" fill="#0066ff" stroke="#0066ff"></path><path d="M2119.6 1149.1L2342.9 1149.1L2127.6 927.9Z" fill="#41a6f9" stroke="#41a6f9"></path><path d="M2314.9 850.9L2564.2 683.7L2323.9 666.7Z" fill="#33a0fb" stroke="#33a0fb"></path><path d="M2342.9 1149.1L2567.2 859.9L2314.9 850.9Z" fill="#1393fe" stroke="#1393fe"></path><path d="M2567.2 859.9L2564.2 683.7L2314.9 850.9Z" fill="#41a6f9" stroke="#41a6f9"></path><path d="M1880.4 858.9L1881.4 1119.1L2127.6 927.9Z" fill="#33a0fb" stroke="#33a0fb"></path><path d="M2131.6 211.2L1889.4 404.4L2139.6 466.4Z" fill="#007eff" stroke="#007eff"></path><path d="M2139.6 466.4L1889.4 404.4L1882.4 672.7Z" fill="#006eff" stroke="#006eff"></path><path d="M2342.9 1149.1L2561.2 1138.1L2567.2 859.9Z" fill="#41a6f9" stroke="#41a6f9"></path><path d="M2564.2 683.7L2556.2 440.4L2348.9 439.4Z" fill="#41a6f9" stroke="#41a6f9"></path><path d="M2317.9 207.2L2131.6 211.2L2139.6 466.4Z" fill="#4facf7" stroke="#4facf7"></path><path d="M1881.4 1119.1L2135.6 1322.3L2119.6 1149.1Z" fill="#1393fe" stroke="#1393fe"></path><path d="M2119.6 1149.1L2135.6 1322.3L2342.9 1149.1Z" fill="#41a6f9" stroke="#41a6f9"></path><path d="M2342.9 1149.1L2548.2 1294.3L2561.2 1138.1Z" fill="#0076ff" stroke="#0076ff"></path><path d="M1614.1 431.4L1656.1 705.7L1882.4 672.7Z" fill="#2399fd" stroke="#2399fd"></path><path d="M1882.4 672.7L1656.1 705.7L1880.4 858.9Z" fill="#0066ff" stroke="#0066ff"></path><path d="M1880.4 858.9L1647.1 874.9L1881.4 1119.1Z" fill="#2399fd" stroke="#2399fd"></path><path d="M1656.1 705.7L1647.1 874.9L1880.4 858.9Z" fill="#007eff" stroke="#007eff"></path><path d="M2135.6 1322.3L2316.9 1359.3L2342.9 1149.1Z" fill="#41a6f9" stroke="#41a6f9"></path><path d="M2317.9 207.2L2139.6 466.4L2348.9 439.4Z" fill="#0076ff" stroke="#0076ff"></path><path d="M2556.2 440.4L2317.9 207.2L2348.9 439.4Z" fill="#4facf7" stroke="#4facf7"></path><path d="M2131.6 211.2L1899.4 258.2L1889.4 404.4Z" fill="#4facf7" stroke="#4facf7"></path><path d="M1889.4 404.4L1614.1 431.4L1882.4 672.7Z" fill="#007eff" stroke="#007eff"></path><path d="M2316.9 1359.3L2548.2 1294.3L2342.9 1149.1Z" fill="#008cff" stroke="#008cff"></path><path d="M1647.1 874.9L1642.1 1104.1L1881.4 1119.1Z" fill="#0085ff" stroke="#0085ff"></path><path d="M1881.4 1119.1L1857.4 1357.3L2135.6 1322.3Z" fill="#33a0fb" stroke="#33a0fb"></path><path d="M2561.2 1138.1L2810.5 861.9L2567.2 859.9Z" fill="#1393fe" stroke="#1393fe"></path><path d="M2567.2 859.9L2810.5 861.9L2564.2 683.7Z" fill="#007eff" stroke="#007eff"></path><path d="M2564.2 683.7L2787.5 449.4L2556.2 440.4Z" fill="#007eff" stroke="#007eff"></path><path d="M2845.5 1126.1L2810.5 861.9L2561.2 1138.1Z" fill="#4facf7" stroke="#4facf7"></path><path d="M1681.1 1361.3L1857.4 1357.3L1881.4 1119.1Z" fill="#1393fe" stroke="#1393fe"></path><path d="M2135.6 1322.3L2145.6 1569.6L2316.9 1359.3Z" fill="#0066ff" stroke="#0066ff"></path><path d="M1678.1 233.2L1614.1 431.4L1889.4 404.4Z" fill="#0085ff" stroke="#0085ff"></path><path d="M1656.1 705.7L1415.8 890.9L1647.1 874.9Z" fill="#007eff" stroke="#007eff"></path><path d="M1647.1 874.9L1415.8 890.9L1642.1 1104.1Z" fill="#0066ff" stroke="#0066ff"></path><path d="M2810.5 861.9L2860.5 675.7L2564.2 683.7Z" fill="#41a6f9" stroke="#41a6f9"></path><path d="M2556.2 440.4L2610.2 212.2L2317.9 207.2Z" fill="#41a6f9" stroke="#41a6f9"></path><path d="M2860.5 675.7L2787.5 449.4L2564.2 683.7Z" fill="#41a6f9" stroke="#41a6f9"></path><path d="M2787.5 449.4L2610.2 212.2L2556.2 440.4Z" fill="#006eff" stroke="#006eff"></path><path d="M2827.5 1323.3L2845.5 1126.1L2561.2 1138.1Z" fill="#007eff" stroke="#007eff"></path><path d="M2810.5 861.9L3052.8 857.9L2860.5 675.7Z" fill="#33a0fb" stroke="#33a0fb"></path><path d="M1899.4 258.2L1678.1 233.2L1889.4 404.4Z" fill="#33a0fb" stroke="#33a0fb"></path><path d="M1920.4 0L1678.1 233.2L1899.4 258.2Z" fill="#0085ff" stroke="#0085ff"></path><path d="M1642.1 1104.1L1681.1 1361.3L1881.4 1119.1Z" fill="#4facf7" stroke="#4facf7"></path><path d="M1884.4 1515.6L2145.6 1569.6L2135.6 1322.3Z" fill="#007eff" stroke="#007eff"></path><path d="M1374.8 683.7L1656.1 705.7L1614.1 431.4Z" fill="#2399fd" stroke="#2399fd"></path><path d="M1374.8 683.7L1415.8 890.9L1656.1 705.7Z" fill="#0085ff" stroke="#0085ff"></path><path d="M1642.1 1104.1L1378.8 1360.3L1681.1 1361.3Z" fill="#41a6f9" stroke="#41a6f9"></path><path d="M1884.4 1515.6L2135.6 1322.3L1857.4 1357.3Z" fill="#0076ff" stroke="#0076ff"></path><path d="M2316.9 1359.3L2378.9 1571.6L2548.2 1294.3Z" fill="#0085ff" stroke="#0085ff"></path><path d="M2548.2 1294.3L2827.5 1323.3L2561.2 1138.1Z" fill="#008cff" stroke="#008cff"></path><path d="M1661.1 1516.6L1884.4 1515.6L1857.4 1357.3Z" fill="#33a0fb" stroke="#33a0fb"></path><path d="M2317.9 207.2L2142.6 0L2131.6 211.2Z" fill="#007eff" stroke="#007eff"></path><path d="M2131.6 211.2L1920.4 0L1899.4 258.2Z" fill="#1393fe" stroke="#1393fe"></path><path d="M2372.9 0L2142.6 0L2317.9 207.2Z" fill="#0076ff" stroke="#0076ff"></path><path d="M2145.6 1569.6L2378.9 1571.6L2316.9 1359.3Z" fill="#33a0fb" stroke="#33a0fb"></path><path d="M1381.8 465.4L1374.8 683.7L1614.1 431.4Z" fill="#1393fe" stroke="#1393fe"></path><path d="M2610.2 212.2L2372.9 0L2317.9 207.2Z" fill="#0076ff" stroke="#0076ff"></path><path d="M1177.5 893.9L1407.8 1089.1L1415.8 890.9Z" fill="#41a6f9" stroke="#41a6f9"></path><path d="M1415.8 890.9L1407.8 1089.1L1642.1 1104.1Z" fill="#0066ff" stroke="#0066ff"></path><path d="M3097.8 410.4L2818.5 257.2L2787.5 449.4Z" fill="#0076ff" stroke="#0076ff"></path><path d="M2787.5 449.4L2818.5 257.2L2610.2 212.2Z" fill="#4facf7" stroke="#4facf7"></path><path d="M2610.2 212.2L2572.2 0L2372.9 0Z" fill="#2399fd" stroke="#2399fd"></path><path d="M2142.6 0L1920.4 0L2131.6 211.2Z" fill="#4facf7" stroke="#4facf7"></path><path d="M2582.2 1556.6L2827.5 1323.3L2548.2 1294.3Z" fill="#33a0fb" stroke="#33a0fb"></path><path d="M2378.9 1571.6L2582.2 1556.6L2548.2 1294.3Z" fill="#33a0fb" stroke="#33a0fb"></path><path d="M1386.8 220.2L1614.1 431.4L1678.1 233.2Z" fill="#4facf7" stroke="#4facf7"></path><path d="M1386.8 220.2L1381.8 465.4L1614.1 431.4Z" fill="#1393fe" stroke="#1393fe"></path><path d="M3049.8 1146.1L3052.8 857.9L2845.5 1126.1Z" fill="#4facf7" stroke="#4facf7"></path><path d="M2845.5 1126.1L3052.8 857.9L2810.5 861.9Z" fill="#4facf7" stroke="#4facf7"></path><path d="M2860.5 675.7L3097.8 410.4L2787.5 449.4Z" fill="#1393fe" stroke="#1393fe"></path><path d="M2861.5 0L2572.2 0L2610.2 212.2Z" fill="#4facf7" stroke="#4facf7"></path><path d="M3052.8 857.9L3065.8 684.7L2860.5 675.7Z" fill="#0066ff" stroke="#0066ff"></path><path d="M1681.1 1361.3L1661.1 1516.6L1857.4 1357.3Z" fill="#006eff" stroke="#006eff"></path><path d="M1884.4 1515.6L2117.6 1760.8L2145.6 1569.6Z" fill="#006eff" stroke="#006eff"></path><path d="M1378.8 1360.3L1661.1 1516.6L1681.1 1361.3Z" fill="#41a6f9" stroke="#41a6f9"></path><path d="M3062.8 1341.3L3049.8 1146.1L2827.5 1323.3Z" fill="#0085ff" stroke="#0085ff"></path><path d="M2827.5 1323.3L3049.8 1146.1L2845.5 1126.1Z" fill="#1393fe" stroke="#1393fe"></path><path d="M3052.8 857.9L3275.1 655.7L3065.8 684.7Z" fill="#33a0fb" stroke="#33a0fb"></path><path d="M1920.4 0L1656.1 0L1678.1 233.2Z" fill="#41a6f9" stroke="#41a6f9"></path><path d="M1849.4 1749.8L2117.6 1760.8L1884.4 1515.6Z" fill="#33a0fb" stroke="#33a0fb"></path><path d="M2145.6 1569.6L2390.9 1760.8L2378.9 1571.6Z" fill="#1393fe" stroke="#1393fe"></path><path d="M2378.9 1571.6L2553.2 1758.8L2582.2 1556.6Z" fill="#0076ff" stroke="#0076ff"></path><path d="M1656.1 0L1386.8 220.2L1678.1 233.2Z" fill="#2399fd" stroke="#2399fd"></path><path d="M1181.5 640.7L1177.5 893.9L1374.8 683.7Z" fill="#4facf7" stroke="#4facf7"></path><path d="M1164.5 1081.1L1378.8 1360.3L1407.8 1089.1Z" fill="#0076ff" stroke="#0076ff"></path><path d="M1407.8 1089.1L1378.8 1360.3L1642.1 1104.1Z" fill="#006eff" stroke="#006eff"></path><path d="M2117.6 1760.8L2390.9 1760.8L2145.6 1569.6Z" fill="#0085ff" stroke="#0085ff"></path><path d="M3050.8 1529.6L3062.8 1341.3L2827.5 1323.3Z" fill="#006eff" stroke="#006eff"></path><path d="M3065.8 684.7L3097.8 410.4L2860.5 675.7Z" fill="#007eff" stroke="#007eff"></path><path d="M2818.5 257.2L2861.5 0L2610.2 212.2Z" fill="#007eff" stroke="#007eff"></path><path d="M3275.1 655.7L3097.8 410.4L3065.8 684.7Z" fill="#0085ff" stroke="#0085ff"></path><path d="M1181.5 640.7L1374.8 683.7L1381.8 465.4Z" fill="#0085ff" stroke="#0085ff"></path><path d="M1374.8 683.7L1177.5 893.9L1415.8 890.9Z" fill="#2399fd" stroke="#2399fd"></path><path d="M1176.5 435.4L1181.5 640.7L1381.8 465.4Z" fill="#0085ff" stroke="#0085ff"></path><path d="M1674.1 1792.8L1849.4 1749.8L1661.1 1516.6Z" fill="#2399fd" stroke="#2399fd"></path><path d="M1661.1 1516.6L1849.4 1749.8L1884.4 1515.6Z" fill="#008cff" stroke="#008cff"></path><path d="M2390.9 1760.8L2553.2 1758.8L2378.9 1571.6Z" fill="#0085ff" stroke="#0085ff"></path><path d="M2858.5 1581.6L2827.5 1323.3L2582.2 1556.6Z" fill="#2399fd" stroke="#2399fd"></path><path d="M3322.1 873.9L3275.1 655.7L3052.8 857.9Z" fill="#0076ff" stroke="#0076ff"></path><path d="M2824.5 1784.8L2858.5 1581.6L2582.2 1556.6Z" fill="#1393fe" stroke="#1393fe"></path><path d="M3092.8 220.2L2861.5 0L2818.5 257.2Z" fill="#4facf7" stroke="#4facf7"></path><path d="M963.2 1125.1L1164.5 1081.1L913.2 880.9Z" fill="#006eff" stroke="#006eff"></path><path d="M1177.5 893.9L1164.5 1081.1L1407.8 1089.1Z" fill="#2399fd" stroke="#2399fd"></path><path d="M1386.8 220.2L1176.5 435.4L1381.8 465.4Z" fill="#007eff" stroke="#007eff"></path><path d="M1181.5 640.7L930.2 705.7L1177.5 893.9Z" fill="#2399fd" stroke="#2399fd"></path><path d="M3097.8 410.4L3092.8 220.2L2818.5 257.2Z" fill="#1393fe" stroke="#1393fe"></path><path d="M1173.5 1368.3L1372.8 1522.6L1378.8 1360.3Z" fill="#4facf7" stroke="#4facf7"></path><path d="M1378.8 1360.3L1372.8 1522.6L1661.1 1516.6Z" fill="#0085ff" stroke="#0085ff"></path><path d="M3322.1 873.9L3052.8 857.9L3308.1 1130.1Z" fill="#006eff" stroke="#006eff"></path><path d="M3097.8 410.4L3269.1 417.4L3092.8 220.2Z" fill="#008cff" stroke="#008cff"></path><path d="M1416.8 1751.8L1674.1 1792.8L1661.1 1516.6Z" fill="#0066ff" stroke="#0066ff"></path><path d="M1849.4 1749.8L2099.6 2000L2117.6 1760.8Z" fill="#4facf7" stroke="#4facf7"></path><path d="M2117.6 1760.8L2335.9 2000L2390.9 1760.8Z" fill="#008cff" stroke="#008cff"></path><path d="M2583.2 2000L2824.5 1784.8L2553.2 1758.8Z" fill="#2399fd" stroke="#2399fd"></path><path d="M1656.1 0L1382.8 0L1386.8 220.2Z" fill="#41a6f9" stroke="#41a6f9"></path><path d="M1386.8 220.2L1154.5 211.2L1176.5 435.4Z" fill="#2399fd" stroke="#2399fd"></path><path d="M2858.5 1581.6L3050.8 1529.6L2827.5 1323.3Z" fill="#4facf7" stroke="#4facf7"></path><path d="M3308.1 1130.1L3052.8 857.9L3049.8 1146.1Z" fill="#0066ff" stroke="#0066ff"></path><path d="M3023.8 1755.8L3050.8 1529.6L2858.5 1581.6Z" fill="#2399fd" stroke="#2399fd"></path><path d="M3308.1 1130.1L3049.8 1146.1L3256.1 1369.3Z" fill="#41a6f9" stroke="#41a6f9"></path><path d="M3333.1 199.2L3269.1 417.4L3518.4 228.2Z" fill="#006eff" stroke="#006eff"></path><path d="M3275.1 655.7L3269.1 417.4L3097.8 410.4Z" fill="#41a6f9" stroke="#41a6f9"></path><path d="M1164.5 1081.1L1173.5 1368.3L1378.8 1360.3Z" fill="#4facf7" stroke="#4facf7"></path><path d="M1372.8 1522.6L1416.8 1751.8L1661.1 1516.6Z" fill="#41a6f9" stroke="#41a6f9"></path><path d="M3256.1 1369.3L3049.8 1146.1L3062.8 1341.3Z" fill="#4facf7" stroke="#4facf7"></path><path d="M1182.5 0L1154.5 211.2L1386.8 220.2Z" fill="#1393fe" stroke="#1393fe"></path><path d="M956.2 461.4L930.2 705.7L1181.5 640.7Z" fill="#006eff" stroke="#006eff"></path><path d="M2583.2 2000L2553.2 1758.8L2390.9 1760.8Z" fill="#41a6f9" stroke="#41a6f9"></path><path d="M2553.2 1758.8L2824.5 1784.8L2582.2 1556.6Z" fill="#41a6f9" stroke="#41a6f9"></path><path d="M3270.1 0L3071.8 0L3092.8 220.2Z" fill="#1393fe" stroke="#1393fe"></path><path d="M3092.8 220.2L3071.8 0L2861.5 0Z" fill="#007eff" stroke="#007eff"></path><path d="M1855.4 2000L2099.6 2000L1849.4 1749.8Z" fill="#33a0fb" stroke="#33a0fb"></path><path d="M2099.6 2000L2335.9 2000L2117.6 1760.8Z" fill="#0085ff" stroke="#0085ff"></path><path d="M3286.1 1528.6L3256.1 1369.3L3050.8 1529.6Z" fill="#006eff" stroke="#006eff"></path><path d="M3050.8 1529.6L3256.1 1369.3L3062.8 1341.3Z" fill="#1393fe" stroke="#1393fe"></path><path d="M1160.5 1527.6L1416.8 1751.8L1372.8 1522.6Z" fill="#0066ff" stroke="#0066ff"></path><path d="M1674.1 1792.8L1855.4 2000L1849.4 1749.8Z" fill="#0076ff" stroke="#0076ff"></path><path d="M1622.1 2000L1855.4 2000L1674.1 1792.8Z" fill="#0085ff" stroke="#0085ff"></path><path d="M956.2 461.4L1181.5 640.7L1176.5 435.4Z" fill="#2399fd" stroke="#2399fd"></path><path d="M1164.5 1081.1L974.2 1326.3L1173.5 1368.3Z" fill="#008cff" stroke="#008cff"></path><path d="M1173.5 1368.3L1160.5 1527.6L1372.8 1522.6Z" fill="#41a6f9" stroke="#41a6f9"></path><path d="M974.2 1326.3L1160.5 1527.6L1173.5 1368.3Z" fill="#006eff" stroke="#006eff"></path><path d="M913.2 880.9L1164.5 1081.1L1177.5 893.9Z" fill="#1393fe" stroke="#1393fe"></path><path d="M940.2 237.2L956.2 461.4L1176.5 435.4Z" fill="#0085ff" stroke="#0085ff"></path><path d="M930.2 705.7L913.2 880.9L1177.5 893.9Z" fill="#0085ff" stroke="#0085ff"></path><path d="M2335.9 2000L2583.2 2000L2390.9 1760.8Z" fill="#0066ff" stroke="#0066ff"></path><path d="M1382.8 0L1182.5 0L1386.8 220.2Z" fill="#0076ff" stroke="#0076ff"></path><path d="M1154.5 211.2L940.2 237.2L1176.5 435.4Z" fill="#0085ff" stroke="#0085ff"></path><path d="M2824.5 1784.8L3023.8 1755.8L2858.5 1581.6Z" fill="#008cff" stroke="#008cff"></path><path d="M2822.5 2000L3023.8 1755.8L2824.5 1784.8Z" fill="#4facf7" stroke="#4facf7"></path><path d="M3269.1 417.4L3333.1 199.2L3092.8 220.2Z" fill="#2399fd" stroke="#2399fd"></path><path d="M3527.4 458.4L3269.1 417.4L3275.1 655.7Z" fill="#2399fd" stroke="#2399fd"></path><path d="M963.2 1125.1L974.2 1326.3L1164.5 1081.1Z" fill="#008cff" stroke="#008cff"></path><path d="M902.2 1522.6L974.2 1326.3L689.9 1353.3Z" fill="#1393fe" stroke="#1393fe"></path><path d="M3023.8 1755.8L3286.1 1528.6L3050.8 1529.6Z" fill="#0085ff" stroke="#0085ff"></path><path d="M3523.4 1341.3L3503.4 1092.1L3308.1 1130.1Z" fill="#1393fe" stroke="#1393fe"></path><path d="M1416.8 1751.8L1622.1 2000L1674.1 1792.8Z" fill="#008cff" stroke="#008cff"></path><path d="M1433.8 2000L1622.1 2000L1416.8 1751.8Z" fill="#0066ff" stroke="#0066ff"></path><path d="M3526.4 853.9L3522.4 672.7L3322.1 873.9Z" fill="#006eff" stroke="#006eff"></path><path d="M3322.1 873.9L3522.4 672.7L3275.1 655.7Z" fill="#2399fd" stroke="#2399fd"></path><path d="M3526.4 853.9L3322.1 873.9L3503.4 1092.1Z" fill="#4facf7" stroke="#4facf7"></path><path d="M3503.4 1092.1L3322.1 873.9L3308.1 1130.1Z" fill="#41a6f9" stroke="#41a6f9"></path><path d="M3527.4 0L3270.1 0L3333.1 199.2Z" fill="#006eff" stroke="#006eff"></path><path d="M3333.1 199.2L3270.1 0L3092.8 220.2Z" fill="#2399fd" stroke="#2399fd"></path><path d="M3523.4 1341.3L3308.1 1130.1L3256.1 1369.3Z" fill="#008cff" stroke="#008cff"></path><path d="M941.2 0L940.2 237.2L1154.5 211.2Z" fill="#2399fd" stroke="#2399fd"></path><path d="M956.2 461.4L742.9 651.7L930.2 705.7Z" fill="#4facf7" stroke="#4facf7"></path><path d="M930.2 705.7L742.9 651.7L913.2 880.9Z" fill="#33a0fb" stroke="#33a0fb"></path><path d="M2583.2 2000L2822.5 2000L2824.5 1784.8Z" fill="#008cff" stroke="#008cff"></path><path d="M3023.8 1755.8L3331.1 1777.8L3286.1 1528.6Z" fill="#0085ff" stroke="#0085ff"></path><path d="M3763.7 646.7L3527.4 458.4L3522.4 672.7Z" fill="#006eff" stroke="#006eff"></path><path d="M3522.4 672.7L3527.4 458.4L3275.1 655.7Z" fill="#007eff" stroke="#007eff"></path><path d="M1155.5 2000L1433.8 2000L1416.8 1751.8Z" fill="#33a0fb" stroke="#33a0fb"></path><path d="M1138.5 1789.8L1416.8 1751.8L1160.5 1527.6Z" fill="#33a0fb" stroke="#33a0fb"></path><path d="M915.2 1741.8L1138.5 1789.8L1160.5 1527.6Z" fill="#007eff" stroke="#007eff"></path><path d="M741.9 472.4L742.9 651.7L956.2 461.4Z" fill="#1393fe" stroke="#1393fe"></path><path d="M913.2 880.9L697.9 925.9L963.2 1125.1Z" fill="#0076ff" stroke="#0076ff"></path><path d="M3508.4 1536.6L3523.4 1341.3L3286.1 1528.6Z" fill="#4facf7" stroke="#4facf7"></path><path d="M3286.1 1528.6L3523.4 1341.3L3256.1 1369.3Z" fill="#1393fe" stroke="#1393fe"></path><path d="M3503.4 1092.1L3741.7 895.9L3526.4 853.9Z" fill="#2399fd" stroke="#2399fd"></path><path d="M3527.4 458.4L3518.4 228.2L3269.1 417.4Z" fill="#2399fd" stroke="#2399fd"></path><path d="M1182.5 0L941.2 0L1154.5 211.2Z" fill="#1393fe" stroke="#1393fe"></path><path d="M940.2 237.2L741.9 472.4L956.2 461.4Z" fill="#008cff" stroke="#008cff"></path><path d="M686.9 1145.1L974.2 1326.3L963.2 1125.1Z" fill="#006eff" stroke="#006eff"></path><path d="M974.2 1326.3L902.2 1522.6L1160.5 1527.6Z" fill="#1393fe" stroke="#1393fe"></path><path d="M674.9 217.2L741.9 472.4L940.2 237.2Z" fill="#4facf7" stroke="#4facf7"></path><path d="M464.6 683.7L697.9 925.9L742.9 651.7Z" fill="#41a6f9" stroke="#41a6f9"></path><path d="M742.9 651.7L697.9 925.9L913.2 880.9Z" fill="#0066ff" stroke="#0066ff"></path><path d="M2822.5 2000L3093.8 2000L3023.8 1755.8Z" fill="#33a0fb" stroke="#33a0fb"></path><path d="M3093.8 2000L3331.1 1777.8L3023.8 1755.8Z" fill="#1393fe" stroke="#1393fe"></path><path d="M3331.1 1777.8L3508.4 1536.6L3286.1 1528.6Z" fill="#0076ff" stroke="#0076ff"></path><path d="M697.9 925.9L686.9 1145.1L963.2 1125.1Z" fill="#0085ff" stroke="#0085ff"></path><path d="M3774.7 194.2L3527.4 0L3518.4 228.2Z" fill="#007eff" stroke="#007eff"></path><path d="M3518.4 228.2L3527.4 0L3333.1 199.2Z" fill="#2399fd" stroke="#2399fd"></path><path d="M3796.7 1109.1L3741.7 895.9L3503.4 1092.1Z" fill="#4facf7" stroke="#4facf7"></path><path d="M3526.4 853.9L3763.7 646.7L3522.4 672.7Z" fill="#006eff" stroke="#006eff"></path><path d="M3527.4 458.4L3774.7 194.2L3518.4 228.2Z" fill="#008cff" stroke="#008cff"></path><path d="M3796.7 1109.1L3503.4 1092.1L3788.7 1295.3Z" fill="#006eff" stroke="#006eff"></path><path d="M717.9 1556.6L915.2 1741.8L902.2 1522.6Z" fill="#41a6f9" stroke="#41a6f9"></path><path d="M902.2 1522.6L915.2 1741.8L1160.5 1527.6Z" fill="#007eff" stroke="#007eff"></path><path d="M1138.5 1789.8L1155.5 2000L1416.8 1751.8Z" fill="#4facf7" stroke="#4facf7"></path><path d="M932.2 2000L1155.5 2000L1138.5 1789.8Z" fill="#0066ff" stroke="#0066ff"></path><path d="M3741.7 895.9L3763.7 646.7L3526.4 853.9Z" fill="#007eff" stroke="#007eff"></path><path d="M686.9 1145.1L689.9 1353.3L974.2 1326.3Z" fill="#33a0fb" stroke="#33a0fb"></path><path d="M726.9 0L674.9 217.2L940.2 237.2Z" fill="#41a6f9" stroke="#41a6f9"></path><path d="M741.9 472.4L464.6 683.7L742.9 651.7Z" fill="#007eff" stroke="#007eff"></path><path d="M697.9 925.9L488.6 1143.1L686.9 1145.1Z" fill="#2399fd" stroke="#2399fd"></path><path d="M3331.1 1777.8L3502.4 1813.8L3508.4 1536.6Z" fill="#33a0fb" stroke="#33a0fb"></path><path d="M3093.8 2000L3254.1 2000L3331.1 1777.8Z" fill="#0085ff" stroke="#0085ff"></path><path d="M4000 643.7L3787.7 475.4L3763.7 646.7Z" fill="#008cff" stroke="#008cff"></path><path d="M3763.7 646.7L3787.7 475.4L3527.4 458.4Z" fill="#2399fd" stroke="#2399fd"></path><path d="M3788.7 1295.3L3503.4 1092.1L3523.4 1341.3Z" fill="#4facf7" stroke="#4facf7"></path><path d="M3741.7 895.9L4000 643.7L3763.7 646.7Z" fill="#0085ff" stroke="#0085ff"></path><path d="M3788.7 1295.3L3523.4 1341.3L3775.7 1592.6Z" fill="#008cff" stroke="#008cff"></path><path d="M689.9 1353.3L717.9 1556.6L902.2 1522.6Z" fill="#006eff" stroke="#006eff"></path><path d="M915.2 1741.8L932.2 2000L1138.5 1789.8Z" fill="#41a6f9" stroke="#41a6f9"></path><path d="M941.2 0L726.9 0L940.2 237.2Z" fill="#41a6f9" stroke="#41a6f9"></path><path d="M3514.4 2000L3502.4 1813.8L3331.1 1777.8Z" fill="#007eff" stroke="#007eff"></path><path d="M3775.7 1592.6L3523.4 1341.3L3508.4 1536.6Z" fill="#4facf7" stroke="#4facf7"></path><path d="M3787.7 475.4L3774.7 194.2L3527.4 458.4Z" fill="#1393fe" stroke="#1393fe"></path><path d="M482.6 416.4L741.9 472.4L674.9 217.2Z" fill="#007eff" stroke="#007eff"></path><path d="M482.6 416.4L464.6 683.7L741.9 472.4Z" fill="#0076ff" stroke="#0076ff"></path><path d="M686.9 1145.1L488.6 1143.1L689.9 1353.3Z" fill="#007eff" stroke="#007eff"></path><path d="M689.9 1353.3L458.6 1527.6L717.9 1556.6Z" fill="#2399fd" stroke="#2399fd"></path><path d="M439.6 904.9L488.6 1143.1L697.9 925.9Z" fill="#0085ff" stroke="#0085ff"></path><path d="M711.9 1790.8L915.2 1741.8L717.9 1556.6Z" fill="#007eff" stroke="#007eff"></path><path d="M711.9 1790.8L932.2 2000L915.2 1741.8Z" fill="#0066ff" stroke="#0066ff"></path><path d="M479.6 190.2L482.6 416.4L674.9 217.2Z" fill="#4facf7" stroke="#4facf7"></path><path d="M464.6 683.7L439.6 904.9L697.9 925.9Z" fill="#1393fe" stroke="#1393fe"></path><path d="M223.3 694.7L439.6 904.9L464.6 683.7Z" fill="#1393fe" stroke="#1393fe"></path><path d="M458.6 1527.6L711.9 1790.8L717.9 1556.6Z" fill="#33a0fb" stroke="#33a0fb"></path><path d="M3774.7 194.2L3772.7 0L3527.4 0Z" fill="#1393fe" stroke="#1393fe"></path><path d="M4000 0L3772.7 0L3774.7 194.2Z" fill="#33a0fb" stroke="#33a0fb"></path><path d="M3745.7 1744.8L3775.7 1592.6L3508.4 1536.6Z" fill="#008cff" stroke="#008cff"></path><path d="M3254.1 2000L3514.4 2000L3331.1 1777.8Z" fill="#0085ff" stroke="#0085ff"></path><path d="M3502.4 1813.8L3745.7 1744.8L3508.4 1536.6Z" fill="#33a0fb" stroke="#33a0fb"></path><path d="M726.9 0L479.6 190.2L674.9 217.2Z" fill="#2399fd" stroke="#2399fd"></path><path d="M482.6 416.4L264.3 458.4L464.6 683.7Z" fill="#0076ff" stroke="#0076ff"></path><path d="M223.3 1102.1L435.6 1311.3L488.6 1143.1Z" fill="#008cff" stroke="#008cff"></path><path d="M488.6 1143.1L435.6 1311.3L689.9 1353.3Z" fill="#0085ff" stroke="#0085ff"></path><path d="M4000 1079.1L3796.7 1109.1L4000 1322.3Z" fill="#0076ff" stroke="#0076ff"></path><path d="M4000 1079.1L4000 924.9L3796.7 1109.1Z" fill="#006eff" stroke="#006eff"></path><path d="M3796.7 1109.1L4000 924.9L3741.7 895.9Z" fill="#33a0fb" stroke="#33a0fb"></path><path d="M3787.7 475.4L4000 254.2L3774.7 194.2Z" fill="#0076ff" stroke="#0076ff"></path><path d="M4000 924.9L4000 643.7L3741.7 895.9Z" fill="#41a6f9" stroke="#41a6f9"></path><path d="M3766.7 2000L3745.7 1744.8L3502.4 1813.8Z" fill="#0066ff" stroke="#0066ff"></path><path d="M4000 1322.3L3796.7 1109.1L3788.7 1295.3Z" fill="#1393fe" stroke="#1393fe"></path><path d="M4000 1322.3L3788.7 1295.3L4000 1542.6Z" fill="#33a0fb" stroke="#33a0fb"></path><path d="M4000 643.7L4000 410.4L3787.7 475.4Z" fill="#1393fe" stroke="#1393fe"></path><path d="M435.6 1311.3L458.6 1527.6L689.9 1353.3Z" fill="#4facf7" stroke="#4facf7"></path><path d="M4000 1542.6L3788.7 1295.3L3775.7 1592.6Z" fill="#2399fd" stroke="#2399fd"></path><path d="M4000 410.4L4000 254.2L3787.7 475.4Z" fill="#008cff" stroke="#008cff"></path><path d="M501.6 2000L691.9 2000L711.9 1790.8Z" fill="#0085ff" stroke="#0085ff"></path><path d="M711.9 1790.8L691.9 2000L932.2 2000Z" fill="#1393fe" stroke="#1393fe"></path><path d="M726.9 0L432.6 0L479.6 190.2Z" fill="#0085ff" stroke="#0085ff"></path><path d="M241.3 203.2L264.3 458.4L482.6 416.4Z" fill="#1393fe" stroke="#1393fe"></path><path d="M439.6 904.9L223.3 1102.1L488.6 1143.1Z" fill="#0085ff" stroke="#0085ff"></path><path d="M241.3 203.2L482.6 416.4L479.6 190.2Z" fill="#1393fe" stroke="#1393fe"></path><path d="M435.6 1311.3L256.3 1313.3L458.6 1527.6Z" fill="#2399fd" stroke="#2399fd"></path><path d="M264.3 458.4L223.3 694.7L464.6 683.7Z" fill="#2399fd" stroke="#2399fd"></path><path d="M4000 1807.8L3775.7 1592.6L3745.7 1744.8Z" fill="#2399fd" stroke="#2399fd"></path><path d="M4000 1807.8L4000 1542.6L3775.7 1592.6Z" fill="#2399fd" stroke="#2399fd"></path><path d="M200.3 926.9L223.3 1102.1L439.6 904.9Z" fill="#006eff" stroke="#006eff"></path><path d="M458.6 1527.6L435.6 1806.8L711.9 1790.8Z" fill="#007eff" stroke="#007eff"></path><path d="M4000 254.2L4000 0L3774.7 194.2Z" fill="#007eff" stroke="#007eff"></path><path d="M223.3 694.7L200.3 926.9L439.6 904.9Z" fill="#0085ff" stroke="#0085ff"></path><path d="M3514.4 2000L3766.7 2000L3502.4 1813.8Z" fill="#2399fd" stroke="#2399fd"></path><path d="M223.3 1102.1L256.3 1313.3L435.6 1311.3Z" fill="#0066ff" stroke="#0066ff"></path><path d="M251.3 1586.6L435.6 1806.8L458.6 1527.6Z" fill="#2399fd" stroke="#2399fd"></path><path d="M0 643.7L0 877.9L223.3 694.7Z" fill="#0066ff" stroke="#0066ff"></path><path d="M223.3 694.7L0 877.9L200.3 926.9Z" fill="#1393fe" stroke="#1393fe"></path><path d="M432.6 0L241.3 203.2L479.6 190.2Z" fill="#33a0fb" stroke="#33a0fb"></path><path d="M264.3 2000L501.6 2000L435.6 1806.8Z" fill="#1393fe" stroke="#1393fe"></path><path d="M435.6 1806.8L501.6 2000L711.9 1790.8Z" fill="#0085ff" stroke="#0085ff"></path><path d="M3766.7 2000L4000 1807.8L3745.7 1744.8Z" fill="#41a6f9" stroke="#41a6f9"></path><path d="M256.3 1313.3L251.3 1586.6L458.6 1527.6Z" fill="#007eff" stroke="#007eff"></path><path d="M0 1569.6L251.3 1586.6L256.3 1313.3Z" fill="#33a0fb" stroke="#33a0fb"></path><path d="M0 1147.1L256.3 1313.3L223.3 1102.1Z" fill="#41a6f9" stroke="#41a6f9"></path><path d="M432.6 0L238.3 0L241.3 203.2Z" fill="#006eff" stroke="#006eff"></path><path d="M0 643.7L223.3 694.7L264.3 458.4Z" fill="#1393fe" stroke="#1393fe"></path><path d="M0 643.7L264.3 458.4L0 410.4Z" fill="#2399fd" stroke="#2399fd"></path><path d="M200.3 926.9L0 1147.1L223.3 1102.1Z" fill="#006eff" stroke="#006eff"></path><path d="M3766.7 2000L4000 2000L4000 1807.8Z" fill="#33a0fb" stroke="#33a0fb"></path><path d="M0 410.4L264.3 458.4L241.3 203.2Z" fill="#0066ff" stroke="#0066ff"></path><path d="M0 1756.8L222.3 1805.8L251.3 1586.6Z" fill="#4facf7" stroke="#4facf7"></path><path d="M251.3 1586.6L222.3 1805.8L435.6 1806.8Z" fill="#0085ff" stroke="#0085ff"></path><path d="M0 877.9L0 1147.1L200.3 926.9Z" fill="#33a0fb" stroke="#33a0fb"></path><path d="M0 226.2L0 410.4L241.3 203.2Z" fill="#0085ff" stroke="#0085ff"></path><path d="M0 1147.1L0 1324.3L256.3 1313.3Z" fill="#0066ff" stroke="#0066ff"></path><path d="M0 0L0 226.2L241.3 203.2Z" fill="#008cff" stroke="#008cff"></path><path d="M0 2000L264.3 2000L222.3 1805.8Z" fill="#1393fe" stroke="#1393fe"></path><path d="M222.3 1805.8L264.3 2000L435.6 1806.8Z" fill="#008cff" stroke="#008cff"></path><path d="M0 1324.3L0 1569.6L256.3 1313.3Z" fill="#007eff" stroke="#007eff"></path><path d="M238.3 0L0 0L241.3 203.2Z" fill="#006eff" stroke="#006eff"></path><path d="M0 1569.6L0 1756.8L251.3 1586.6Z" fill="#0066ff" stroke="#0066ff"></path><path d="M0 1756.8L0 2000L222.3 1805.8Z" fill="#1393fe" stroke="#1393fe"></path></g></svg>